<svg width="913" height="453" viewBox="0 0 913 453" fill="none" xmlns="http://www.w3.org/2000/svg">
<path d="M891 367.394L830.477 409.595L740.583 441L674.719 421.232L609.153 440.86L551.893 422.213L352.227 299.676L224.357 157.231L6 21.0946L172.141 30.9087L293.781 11L411.86 30.7685L466.449 29.2263L443.011 56.9863L531.422 94.2801L374.775 63.4356L286.957 82.9237L219.017 74.2312L276.87 100.729L291.704 151.483L373.588 180.364L384.565 190.459L415.717 172.092L453.989 194.805L588.979 186.673L677.983 238.128L795.172 277.104L778.261 299.256L832.257 304.023L811.786 331.222L891 367.394Z" fill="#0038FF" stroke="#FF0000" stroke-width="21"/>
</svg>
