<svg width="1052" height="1238" viewBox="0 0 1052 1238" fill="none" xmlns="http://www.w3.org/2000/svg">
<path d="M1027 1007.47L959.707 1124.16L859.756 1211L786.525 1156.34L713.624 1210.61L649.959 1159.05L427.957 820.223L285.784 426.345L43 49.9126L227.727 77.0499L362.973 22L494.261 76.6622L554.957 72.3978L528.897 149.158L627.198 252.279L453.028 166.991L355.386 220.877L279.846 196.842L344.171 270.112L360.664 410.451L451.708 490.312L463.913 518.224L498.549 467.439L541.103 530.242L691.193 507.757L790.154 650.034L920.452 757.808L901.65 819.06L961.686 832.241L938.925 907.45L1027 1007.47Z" fill="#0038FF"/>
<path fill-rule="evenodd" clip-rule="evenodd" d="M362.646 0L497.265 56.043L584.488 49.9155L552.371 144.508L641.849 238.364L617.437 271.733L453.148 191.292L357.209 244.234L345.093 240.379L363.845 261.736L380.152 400.473L466.808 476.478L498.127 430.561L550.563 507.941L700.409 485.494L805.13 636.036L943.967 750.861L927.747 803.698L987.667 816.852L961.726 902.56L1052 1005.07L975.439 1137.81L860.113 1238L785.9 1182.61L712.507 1237.25L633.658 1173.4L408.606 829.948L266.47 436.218L0 23.1034L224.76 56.1182L362.646 0ZM362.465 45.4269L229.98 99.3471L85.4533 78.1176L304.331 417.449L446.415 811.035L665.166 1144.87L713.59 1184.08L785.933 1130.23L858.116 1184.1L942.6 1110.71L1000.57 1010.2L914.769 912.78L934.329 848.154L874.231 834.961L895.599 765.36L773.957 664.758L680.846 530.905L530.647 553.404L498.014 505.247L459.417 561.833L433.896 503.475L340.343 421.422L323.678 279.638L213.839 154.536L352.735 198.726L451.991 143.954L530.441 182.366L504.439 155.092L524.417 96.2508L490.304 98.6474L362.465 45.4269Z" fill="#FF0000"/>
</svg>
