<svg width="144" height="29" viewBox="0 0 144 29" fill="none" xmlns="http://www.w3.org/2000/svg">
<path d="M143.099 10H127.439V28H130.679V13.24H139.859V28H143.099V10Z" fill="#00B6F5"/>
<path d="M121.999 10H121.279L108.679 21.376V10H105.439V28H106.159L118.759 16.624V28H121.999V10Z" fill="#F656A0"/>
<path d="M96.58 6.0401C97.984 6.0401 99.172 5.5361 100.144 4.5641C101.116 3.5921 101.62 2.4041 101.62 1.0001V0.100098H98.38V1.0001C98.38 2.0081 97.588 2.8001 96.58 2.8001H87.58C86.032 2.8001 84.7 3.3401 83.62 4.4201C82.54 5.5001 82 6.8321 82 8.3801C82 10.6481 83.332 12.5921 85.24 13.4561C83.548 15.2201 82.72 17.3081 82.72 19.7201C82.72 22.2041 83.584 24.3281 85.348 26.0921C87.112 27.8561 89.236 28.7201 91.72 28.7201C94.204 28.7201 96.328 27.8561 98.092 26.0921C99.856 24.3281 100.72 22.2041 100.72 19.7201C100.72 17.2361 99.856 15.1121 98.092 13.3481C96.328 11.5841 94.204 10.7201 91.72 10.7201H87.58C86.284 10.7201 85.24 9.6761 85.24 8.3801C85.24 7.0841 86.284 6.0401 87.58 6.0401H96.58ZM87.652 15.6521C88.768 14.5361 90.136 13.9601 91.72 13.9601C93.304 13.9601 94.672 14.5361 95.788 15.6521C96.904 16.7681 97.48 18.1361 97.48 19.7201C97.48 21.3041 96.904 22.6721 95.788 23.7881C94.672 24.9041 93.304 25.4801 91.72 25.4801C90.136 25.4801 88.768 24.9041 87.652 23.7881C86.536 22.6721 85.96 21.3041 85.96 19.7201C85.96 18.1361 86.536 16.7681 87.652 15.6521Z" fill="#11DA00"/>
<path d="M65.8008 18.7121L66.9168 21.7721L79.4088 17.2001L78.2928 14.1401L65.8008 18.7121Z" fill="#F656A0"/>
<path d="M60.0995 10H44.4395V28H47.6795V13.24H56.8595V28H60.0995V10Z" fill="#FF0000"/>
<path d="M38.9995 10H38.2795L25.6795 21.376V10H22.4395V28H23.1595L35.7595 16.624V28H38.9995V10Z" fill="#0038FF"/>
<path d="M14.58 6.0401C15.984 6.0401 17.172 5.5361 18.144 4.5641C19.116 3.5921 19.62 2.4041 19.62 1.0001V0.100098H16.38V1.0001C16.38 2.0081 15.588 2.8001 14.58 2.8001H5.58C4.032 2.8001 2.7 3.3401 1.62 4.4201C0.54 5.5001 0 6.8321 0 8.3801C0 10.6481 1.332 12.5921 3.24 13.4561C1.548 15.2201 0.72 17.3081 0.72 19.7201C0.72 22.2041 1.584 24.3281 3.348 26.0921C5.112 27.8561 7.236 28.7201 9.72 28.7201C12.204 28.7201 14.328 27.8561 16.092 26.0921C17.856 24.3281 18.72 22.2041 18.72 19.7201C18.72 17.2361 17.856 15.1121 16.092 13.3481C14.328 11.5841 12.204 10.7201 9.72 10.7201H5.58C4.284 10.7201 3.24 9.6761 3.24 8.3801C3.24 7.0841 4.284 6.0401 5.58 6.0401H14.58ZM5.652 15.6521C6.768 14.5361 8.136 13.9601 9.72 13.9601C11.304 13.9601 12.672 14.5361 13.788 15.6521C14.904 16.7681 15.48 18.1361 15.48 19.7201C15.48 21.3041 14.904 22.6721 13.788 23.7881C12.672 24.9041 11.304 25.4801 9.72 25.4801C8.136 25.4801 6.768 24.9041 5.652 23.7881C4.536 22.6721 3.96 21.3041 3.96 19.7201C3.96 18.1361 4.536 16.7681 5.652 15.6521Z" fill="#00B6F5"/>
</svg>
