<svg width="144" height="29" viewBox="0 0 144 29" fill="none" xmlns="http://www.w3.org/2000/svg">
<path d="M143.18 10H127.52V28H130.76V13.24H139.94V28H143.18V10Z" fill="#F656A0"/>
<path d="M122.08 10H121.36L108.76 21.376V10H105.52V28H106.24L118.84 16.624V28H122.08V10Z" fill="#0038FF"/>
<path d="M96.6601 6.0401C98.0641 6.0401 99.2521 5.5361 100.224 4.5641C101.196 3.5921 101.7 2.4041 101.7 1.0001V0.100098H98.4601V1.0001C98.4601 2.0081 97.6681 2.8001 96.6601 2.8001H87.6601C86.1121 2.8001 84.7801 3.3401 83.7001 4.4201C82.6201 5.5001 82.0801 6.8321 82.0801 8.3801C82.0801 10.6481 83.4121 12.5921 85.3201 13.4561C83.6281 15.2201 82.8001 17.3081 82.8001 19.7201C82.8001 22.2041 83.6641 24.3281 85.4281 26.0921C87.1921 27.8561 89.3161 28.7201 91.8001 28.7201C94.2841 28.7201 96.4081 27.8561 98.1721 26.0921C99.9361 24.3281 100.8 22.2041 100.8 19.7201C100.8 17.2361 99.9361 15.1121 98.1721 13.3481C96.4081 11.5841 94.2841 10.7201 91.8001 10.7201H87.6601C86.3641 10.7201 85.3201 9.6761 85.3201 8.3801C85.3201 7.0841 86.3641 6.0401 87.6601 6.0401H96.6601ZM87.7321 15.6521C88.8481 14.5361 90.2161 13.9601 91.8001 13.9601C93.3841 13.9601 94.7521 14.5361 95.8681 15.6521C96.9841 16.7681 97.5601 18.1361 97.5601 19.7201C97.5601 21.3041 96.9841 22.6721 95.8681 23.7881C94.7521 24.9041 93.3841 25.4801 91.8001 25.4801C90.2161 25.4801 88.8481 24.9041 87.7321 23.7881C86.6161 22.6721 86.0401 21.3041 86.0401 19.7201C86.0401 18.1361 86.6161 16.7681 87.7321 15.6521Z" fill="#FF0000"/>
<path d="M65.8809 18.7121L66.9969 21.7721L79.4889 17.2001L78.3729 14.1401L65.8809 18.7121Z" fill="#11DA00"/>
<path d="M60.1795 10H44.5195V28H47.7595V13.24H56.9395V28H60.1795V10Z" fill="#00B6F5"/>
<path d="M39.0795 10H38.3595L25.7595 21.376V10H22.5195V28H23.2395L35.8395 16.624V28H39.0795V10Z" fill="#FF0000"/>
<path d="M14.6601 6.0401C16.0641 6.0401 17.2521 5.5361 18.2241 4.5641C19.1961 3.5921 19.7001 2.4041 19.7001 1.0001V0.100098H16.4601V1.0001C16.4601 2.0081 15.6681 2.8001 14.6601 2.8001H5.66008C4.11208 2.8001 2.78008 3.3401 1.70008 4.4201C0.620078 5.5001 0.0800781 6.8321 0.0800781 8.3801C0.0800781 10.6481 1.41208 12.5921 3.32008 13.4561C1.62808 15.2201 0.800078 17.3081 0.800078 19.7201C0.800078 22.2041 1.66408 24.3281 3.42808 26.0921C5.19208 27.8561 7.31608 28.7201 9.80008 28.7201C12.2841 28.7201 14.4081 27.8561 16.1721 26.0921C17.9361 24.3281 18.8001 22.2041 18.8001 19.7201C18.8001 17.2361 17.9361 15.1121 16.1721 13.3481C14.4081 11.5841 12.2841 10.7201 9.80008 10.7201H5.66008C4.36408 10.7201 3.32008 9.6761 3.32008 8.3801C3.32008 7.0841 4.36408 6.0401 5.66008 6.0401H14.6601ZM5.73208 15.6521C6.84808 14.5361 8.21608 13.9601 9.80008 13.9601C11.3841 13.9601 12.7521 14.5361 13.8681 15.6521C14.9841 16.7681 15.5601 18.1361 15.5601 19.7201C15.5601 21.3041 14.9841 22.6721 13.8681 23.7881C12.7521 24.9041 11.3841 25.4801 9.80008 25.4801C8.21608 25.4801 6.84808 24.9041 5.73208 23.7881C4.61608 22.6721 4.04008 21.3041 4.04008 19.7201C4.04008 18.1361 4.61608 16.7681 5.73208 15.6521Z" fill="#F656A0"/>
</svg>
