<svg width="525" height="345" viewBox="0 0 525 345" fill="none" xmlns="http://www.w3.org/2000/svg">
<path d="M191.895 200.279C184.207 183.806 167.693 173.28 149.538 173.28H148.029C113.808 173.28 91.1806 208.889 105.671 239.939L141.938 317.647C149.626 334.12 166.14 344.646 184.295 344.646H185.805C220.026 344.646 242.653 309.036 228.162 277.987L191.895 200.279Z" fill="#C4C4C4"/>
<path d="M441.389 200.279C433.702 183.806 417.188 173.28 399.032 173.28H397.523C363.302 173.28 340.675 208.889 355.166 239.939L391.433 317.647C399.12 334.12 415.634 344.646 433.79 344.646H435.299C469.52 344.646 492.147 309.036 477.656 277.987L441.389 200.279Z" fill="#C4C4C4"/>
<path d="M76.9171 142.423H0.407341L30.0079 214.287H106.518L76.9171 142.423Z" fill="#E5E5E5"/>
<path d="M494.439 142.423H417.929L447.529 214.287H524.039L494.439 142.423Z" fill="#E5E5E5"/>
<path d="M441.652 111.031C435.247 95.8354 420.361 85.9561 403.871 85.9561H79.7976C50.4683 85.9561 30.6248 115.855 42.0168 142.881L78.2822 228.917C84.6873 244.112 99.5728 253.992 116.063 253.992H440.136C469.466 253.992 489.309 224.093 477.917 197.067L441.652 111.031Z" fill="#7E7E7E"/>
<path d="M301.897 20.789L353.901 147.684" stroke="black" stroke-width="40" stroke-linecap="round"/>
</svg>
