<svg width="525" height="345" viewBox="0 0 525 345" fill="none" xmlns="http://www.w3.org/2000/svg">
<path d="M333.073 200.018C340.761 183.545 357.275 173.019 375.431 173.019H376.94C411.161 173.019 433.788 208.628 419.297 239.677L383.03 317.386C375.342 333.859 358.829 344.385 340.673 344.385H339.164C304.943 344.385 282.316 308.775 296.806 277.726L333.073 200.018Z" fill="#C4C4C4"/>
<path d="M83.5793 200.018C91.2672 183.545 107.781 173.019 125.936 173.019H127.446C161.667 173.019 184.294 208.628 169.803 239.677L133.536 317.386C125.848 333.859 109.334 344.385 91.1791 344.385H89.6694C55.449 344.385 32.8215 308.775 47.3123 277.726L83.5793 200.018Z" fill="#C4C4C4"/>
<path d="M448.052 142.162H524.561L494.961 214.026H418.451L448.052 142.162Z" fill="#E5E5E5"/>
<path d="M30.5321 142.162H107.042L77.4414 214.026H0.931641L30.5321 142.162Z" fill="#E5E5E5"/>
<path d="M83.3169 110.77C89.722 95.5742 104.607 85.6948 121.098 85.6948H445.171C474.5 85.6948 494.344 115.594 482.952 142.62L446.687 228.656C440.281 243.851 425.396 253.73 408.906 253.73H84.8323C55.503 253.73 35.6594 223.832 47.0515 196.805L83.3169 110.77Z" fill="#7E7E7E"/>
<path d="M223.072 20.5277L171.068 147.423" stroke="black" stroke-width="40" stroke-linecap="round"/>
</svg>
