<svg width="482" height="399" viewBox="0 0 482 399" fill="none" xmlns="http://www.w3.org/2000/svg">
<path d="M251.851 33.3618H468.225L395.116 199.372H178.742L251.851 33.3618Z" fill="#E5E5E5"/>
<path d="M406.031 158.651H481.618L452.375 229.649H376.787L406.031 158.651Z" fill="#7E7E7E"/>
<path d="M30.0424 158.651H105.63L76.3862 229.649H0.798828L30.0424 158.651Z" fill="#7E7E7E"/>
<path d="M71.1711 142.756H451.338L381.362 308.766H1.19531L71.1711 142.756Z" fill="#E5E5E5"/>
<path d="M350.027 20.1367L298.65 145.502" stroke="black" stroke-width="40" stroke-linecap="round"/>
<path d="M287.598 255.7C295.193 239.426 311.508 229.027 329.445 229.027H330.936C364.744 229.027 387.099 264.207 372.783 294.882L336.953 371.654C329.358 387.928 313.043 398.327 295.106 398.327H293.615C259.807 398.327 237.452 363.147 251.768 332.472L287.598 255.7Z" fill="#999999"/>
<path d="M41.1118 255.7C48.7071 239.426 65.0219 229.027 82.9583 229.027H84.4498C118.258 229.027 140.612 264.207 126.296 294.882L90.4666 371.654C82.8713 387.928 66.5564 398.327 48.62 398.327H47.1286C13.3207 398.327 -9.03411 363.147 5.28202 332.472L41.1118 255.7Z" fill="#999999"/>
</svg>
