<svg width="482" height="399" viewBox="0 0 482 399" fill="none" xmlns="http://www.w3.org/2000/svg">
<path d="M230.567 33.3618H14.1931L87.3021 199.372H303.676L230.567 33.3618Z" fill="#E5E5E5"/>
<path d="M76.3872 158.651H0.799759L30.0434 229.649H105.631L76.3872 158.651Z" fill="#7E7E7E"/>
<path d="M452.376 158.651H376.788L406.032 229.649H481.619L452.376 158.651Z" fill="#7E7E7E"/>
<path d="M411.247 142.756H31.0798L101.056 308.766H481.223L411.247 142.756Z" fill="#E5E5E5"/>
<path d="M132.391 20.1367L183.768 145.502" stroke="black" stroke-width="40" stroke-linecap="round"/>
<path d="M194.82 255.7C187.225 239.426 170.91 229.027 152.973 229.027H151.482C117.674 229.027 95.3192 264.207 109.635 294.882L145.465 371.654C153.06 387.928 169.375 398.327 187.312 398.327H188.803C222.611 398.327 244.966 363.147 230.65 332.472L194.82 255.7Z" fill="#999999"/>
<path d="M441.306 255.7C433.711 239.426 417.396 229.027 399.46 229.027H397.968C364.16 229.027 341.805 264.207 356.122 294.882L391.951 371.654C399.547 387.928 415.862 398.327 433.798 398.327H435.289C469.097 398.327 491.452 363.147 477.136 332.472L441.306 255.7Z" fill="#999999"/>
</svg>
