<svg width="477" height="407" viewBox="0 0 477 407" fill="none" xmlns="http://www.w3.org/2000/svg">
<path d="M248.809 41.7114H463.415L390.903 206.259H176.297L248.809 41.7114Z" fill="black"/>
<path d="M402.997 165.962H476.848L448.276 238.161H374.426L402.997 165.962Z" fill="#7E7E7E"/>
<path d="M29.0401 165.962H104.101L75.0613 238.161H0L29.0401 165.962Z" fill="#7E7E7E"/>
<path d="M69.6905 150.85H448.308L378.617 317.077H0L69.6905 150.85Z" fill="black"/>
<path fill-rule="evenodd" clip-rule="evenodd" d="M260.643 9.7421C272.771 14.7106 278.574 28.5695 273.606 40.6968L222.535 165.353C217.567 177.48 203.708 183.284 191.58 178.315C179.453 173.347 173.65 159.488 178.618 147.361L229.688 22.7045C234.657 10.5771 248.516 4.77364 260.643 9.7421Z" fill="#999999"/>
<path d="M285.206 264.615C292.77 248.475 309.018 238.161 326.881 238.161H328.367C362.037 238.161 384.3 273.052 370.043 303.474L334.359 379.613C326.795 395.753 310.546 406.067 292.683 406.067H291.198C257.528 406.067 235.264 371.176 249.522 340.754L285.206 264.615Z" fill="#E5E5E5"/>
<path d="M40.0669 264.615C47.6312 248.475 63.8795 238.161 81.7428 238.161H83.2282C116.898 238.161 139.162 273.052 124.904 303.474L89.2204 379.613C81.6561 395.753 65.4078 406.067 47.5445 406.067H46.0591C12.3891 406.067 -9.87453 371.176 4.38321 340.754L40.0669 264.615Z" fill="#E5E5E5"/>
</svg>
