<svg width="477" height="407" viewBox="0 0 477 407" fill="none" xmlns="http://www.w3.org/2000/svg">
<path d="M228.039 41.7119H13.4323L85.9443 206.259H300.551L228.039 41.7119Z" fill="black"/>
<path d="M73.8502 165.962H-0.00050354L28.5712 238.161H102.422L73.8502 165.962Z" fill="#7E7E7E"/>
<path d="M447.808 165.962H372.746L401.786 238.161H476.848L447.808 165.962Z" fill="#7E7E7E"/>
<path d="M407.157 150.851H28.5399L98.2304 317.077H476.848L407.157 150.851Z" fill="black"/>
<path fill-rule="evenodd" clip-rule="evenodd" d="M216.204 9.7421C204.077 14.7106 198.274 28.5695 203.242 40.6968L254.312 165.353C259.281 177.48 273.14 183.284 285.267 178.315C297.395 173.347 303.198 159.488 298.23 147.361L247.159 22.7045C242.191 10.5771 228.332 4.77364 216.204 9.7421Z" fill="#999999"/>
<path d="M191.642 264.615C184.078 248.475 167.829 238.162 149.966 238.162H148.481C114.811 238.162 92.5472 273.052 106.805 303.474L142.489 379.613C150.053 395.754 166.301 406.067 184.164 406.067H185.65C219.32 406.067 241.584 371.177 227.326 340.755L191.642 264.615Z" fill="#E5E5E5"/>
<path d="M436.781 264.615C429.216 248.475 412.968 238.162 395.105 238.162H393.619C359.949 238.162 337.686 273.052 351.944 303.474L387.627 379.613C395.192 395.754 411.44 406.067 429.303 406.067H430.789C464.459 406.067 486.722 371.177 472.464 340.755L436.781 264.615Z" fill="#E5E5E5"/>
</svg>
