<svg width="524" height="367" viewBox="0 0 524 367" fill="none" xmlns="http://www.w3.org/2000/svg">
<path d="M332.001 221.165C339.589 204.597 355.888 194.01 373.807 194.01H375.297C409.073 194.01 431.406 229.825 417.104 261.053L381.308 339.21C373.72 355.778 357.421 366.364 339.502 366.364H338.012C304.236 366.364 281.903 330.549 296.206 299.321L332.001 221.165Z" fill="#7E7E7E"/>
<path d="M84.5615 221.165C92.1495 204.597 108.449 194.01 126.368 194.01H127.858C161.633 194.01 183.967 229.825 169.664 261.053L133.869 339.21C126.281 355.778 109.982 366.364 92.0625 366.364H90.5725C56.797 366.364 34.4637 330.549 48.7661 299.321L84.5615 221.165Z" fill="#7E7E7E"/>
<path d="M447.602 163.293H523.889L494.375 234.965H418.088L447.602 163.293Z" fill="#E5E5E5"/>
<path d="M29.9904 163.293H107.508L77.5176 234.965H0L29.9904 163.293Z" fill="#E5E5E5"/>
<path d="M73.2146 158.127C86.2987 127.132 116.714 106.979 150.408 106.979H380.306C440.225 106.979 480.767 167.949 457.5 223.067C444.416 254.062 414.001 274.214 380.306 274.214H150.408C90.4895 274.214 49.9472 213.245 73.2146 158.127Z" fill="#C4C4C4"/>
<path fill-rule="evenodd" clip-rule="evenodd" d="M230.978 9.50957C242.355 14.1707 247.8 27.1725 243.139 38.5498L191.234 165.242C186.573 176.619 173.571 182.064 162.194 177.403C150.817 172.741 145.372 159.74 150.033 148.362L201.938 21.6703C206.599 10.2929 219.601 4.84841 230.978 9.50957Z" fill="black"/>
</svg>
