<svg width="524" height="367" viewBox="0 0 524 367" fill="none" xmlns="http://www.w3.org/2000/svg">
<path d="M191.888 221.165C184.3 204.597 168 194.01 150.081 194.01H148.591C114.816 194.01 92.4824 229.825 106.785 261.053L142.58 339.21C150.168 355.778 166.467 366.364 184.387 366.364H185.877C219.652 366.364 241.986 330.549 227.683 299.321L191.888 221.165Z" fill="#7E7E7E"/>
<path d="M439.327 221.165C431.739 204.597 415.44 194.01 397.521 194.01H396.031C362.255 194.01 339.922 229.825 354.224 261.053L390.02 339.21C397.608 355.778 413.907 366.364 431.826 366.364H433.316C467.092 366.364 489.425 330.549 475.123 299.321L439.327 221.165Z" fill="#7E7E7E"/>
<path d="M76.2865 163.293H-0.00075531L29.5136 234.965H105.801L76.2865 163.293Z" fill="#E5E5E5"/>
<path d="M493.898 163.293H416.381L446.371 234.965H523.889L493.898 163.293Z" fill="#E5E5E5"/>
<path d="M450.674 158.127C437.59 127.132 407.175 106.979 373.48 106.979H143.583C83.6639 106.979 43.1214 167.949 66.3888 223.067C79.4729 254.062 109.888 274.214 143.582 274.214H373.481C433.399 274.214 473.941 213.245 450.674 158.127Z" fill="#C4C4C4"/>
<path fill-rule="evenodd" clip-rule="evenodd" d="M292.911 9.50957C281.533 14.1707 276.089 27.1725 280.75 38.5498L332.654 165.242C337.316 176.619 350.317 182.064 361.695 177.403C373.072 172.741 378.517 159.74 373.855 148.362L321.951 21.6703C317.29 10.2929 304.288 4.84841 292.911 9.50957Z" fill="black"/>
</svg>
