<svg width="394" height="956" viewBox="0 0 394 956" fill="none" xmlns="http://www.w3.org/2000/svg">
<mask id="mask0" mask-type="alpha" maskUnits="userSpaceOnUse" x="0" y="0" width="394" height="956">
<rect width="394" height="956" fill="#C4C4C4"/>
</mask>
<g mask="url(#mask0)">
<path d="M382.348 637.824C385.162 690.642 344.625 735.742 291.806 738.556C238.987 741.37 193.888 700.833 191.074 648.014C188.26 595.195 228.797 550.096 281.616 547.282C334.434 544.468 379.534 585.005 382.348 637.824Z" fill="#0038FF"/>
<path fill-rule="evenodd" clip-rule="evenodd" d="M282.166 557.643C235.069 560.152 198.924 600.365 201.433 647.462C203.942 694.559 244.156 730.704 291.253 728.195C338.349 725.686 374.495 685.473 371.986 638.376C369.477 591.279 329.263 555.133 282.166 557.643ZM180.712 648.566C177.593 590.025 222.521 540.04 281.062 536.921C339.603 533.802 389.588 578.731 392.707 637.272C395.826 695.813 350.897 745.798 292.357 748.917C233.816 752.035 183.831 707.107 180.712 648.566Z" fill="#FF0000"/>
<path fill-rule="evenodd" clip-rule="evenodd" d="M316.359 731.693L237.672 561.655L256.504 552.94L335.191 722.979L316.359 731.693Z" fill="#FF0000"/>
<path d="M207.588 748.098C206.256 800.975 162.31 842.76 109.433 841.428C56.5564 840.096 14.7712 796.151 16.1034 743.274C17.4356 690.397 61.3809 648.611 114.258 649.943C167.135 651.276 208.92 695.221 207.588 748.098Z" fill="#0038FF"/>
<path fill-rule="evenodd" clip-rule="evenodd" d="M113.996 660.315C66.8474 659.127 27.6628 696.386 26.4749 743.534C25.287 790.683 62.5455 829.868 109.694 831.056C156.843 832.244 196.027 794.985 197.215 747.836C198.403 700.688 161.145 661.503 113.996 660.315ZM5.73074 743.012C7.2073 684.406 55.9133 638.094 114.519 639.571C173.124 641.048 219.436 689.754 217.959 748.359C216.483 806.964 167.777 853.276 109.172 851.8C50.5662 850.323 4.25417 801.617 5.73074 743.012Z" fill="#FF0000"/>
<path fill-rule="evenodd" clip-rule="evenodd" d="M59.9513 795.112L116.561 671.808L135.419 680.466L78.8095 803.77L59.9513 795.112Z" fill="white"/>
<path fill-rule="evenodd" clip-rule="evenodd" d="M88.9649 808.432L145.574 685.128L164.432 693.786L107.823 817.09L88.9649 808.432Z" fill="white"/>
<path fill-rule="evenodd" clip-rule="evenodd" d="M134.45 836.509L69.3242 660.829L88.7811 653.616L153.907 829.296L134.45 836.509Z" fill="#FF0000"/>
<path d="M40.3885 474.011C42.0334 459.358 58.9239 451.98 70.7915 460.731L196.513 553.438C208.381 562.189 206.325 580.505 192.812 586.407L49.6649 648.932C36.1525 654.834 21.3181 643.895 22.963 629.242L40.3885 474.011Z" fill="white"/>
<path fill-rule="evenodd" clip-rule="evenodd" d="M30.0792 472.853C32.6151 450.263 58.6546 438.889 76.9504 452.38L202.672 545.087C220.968 558.578 217.798 586.816 196.966 595.915L53.8191 658.44C32.9874 667.539 10.1178 650.675 12.6536 628.085L30.0792 472.853ZM64.6351 469.081C59.1958 465.07 51.4543 468.452 50.7004 475.168L33.2748 630.399C32.5209 637.115 39.32 642.129 45.5132 639.424L188.661 576.899C194.854 574.194 195.796 565.799 190.357 561.788L64.6351 469.081Z" fill="#FF0000"/>
<path d="M57.5098 499.626L97.1424 574.284L105.568 570.604L77.731 490.794L57.5098 499.626ZM106.917 602.788C111.961 604.766 117.859 602.19 119.837 597.146C121.814 592.102 119.238 586.204 114.194 584.226C109.15 582.249 103.252 584.825 101.274 589.869C99.2973 594.913 101.873 600.811 106.917 602.788Z" fill="black"/>
<path d="M377.454 316.356C386.522 327.983 379.604 345.066 365.001 347.107L210.297 368.722C195.694 370.762 184.358 356.229 189.892 342.562L248.525 197.777C254.06 184.11 272.314 181.559 281.383 193.186L377.454 316.356Z" fill="white"/>
<path fill-rule="evenodd" clip-rule="evenodd" d="M385.633 309.975C399.614 327.9 388.948 354.237 366.435 357.383L211.731 378.998C189.218 382.143 171.742 359.738 180.274 338.668L238.907 193.883C247.44 172.813 275.582 168.881 289.562 186.805L385.633 309.975ZM363.564 336.832C370.257 335.896 373.428 328.066 369.271 322.737L273.2 199.567C269.044 194.239 260.677 195.408 258.141 201.672L199.508 346.457C196.971 352.721 202.167 359.382 208.86 358.447L363.564 336.832Z" fill="#FF0000"/>
<path d="M347.303 310.012L266.769 284.342L263.318 292.864L339.02 330.464L347.303 310.012ZM239.852 270.796C234.863 272.909 232.447 278.874 234.56 283.863C236.673 288.852 242.638 291.268 247.627 289.155C252.616 287.042 255.031 281.077 252.918 276.088C250.806 271.099 244.84 268.683 239.852 270.796Z" fill="black"/>
<path d="M360.805 789.808C393.818 831.134 387.08 891.398 345.754 924.412C304.428 957.426 244.164 950.688 211.15 909.362C178.136 868.036 184.874 807.771 226.2 774.757C267.526 741.744 327.791 748.482 360.805 789.808Z" fill="#0038FF"/>
<path fill-rule="evenodd" clip-rule="evenodd" d="M232.676 782.864C195.827 812.301 189.819 866.037 219.256 902.886C248.694 939.735 302.429 945.743 339.278 916.306C376.127 886.869 382.136 833.133 352.698 796.284C323.261 759.435 269.525 753.426 232.676 782.864ZM203.044 915.837C166.453 870.034 173.922 803.241 219.725 766.651C265.528 730.061 332.321 737.529 368.911 783.332C405.501 829.135 398.033 895.928 352.23 932.518C306.427 969.109 239.634 961.64 203.044 915.837Z" fill="#FF0000"/>
<path fill-rule="evenodd" clip-rule="evenodd" d="M361.08 904.174L198.164 811.637L208.413 793.594L371.329 886.131L361.08 904.174Z" fill="#FF0000"/>
<path fill-rule="evenodd" clip-rule="evenodd" d="M247.494 935.467L340.031 772.551L321.988 762.302L229.451 925.219L247.494 935.467Z" fill="#FF0000"/>
<mask id="mask1" mask-type="alpha" maskUnits="userSpaceOnUse" x="3" y="273" width="399" height="344">
<rect x="3.47852" y="273.085" width="398.013" height="343.463" fill="#C4C4C4"/>
</mask>
<g mask="url(#mask1)">
<rect x="-43.4961" y="279.549" width="592.979" height="47.4787" transform="rotate(30 -43.4961 279.549)" fill="white"/>
<mask id="mask2" mask-type="alpha" maskUnits="userSpaceOnUse" x="-68" y="279" width="539" height="339">
<rect x="-43.4961" y="279.549" width="592.979" height="47.4787" transform="rotate(30 -43.4961 279.549)" fill="white"/>
</mask>
<g mask="url(#mask2)">
<rect x="-29.4277" y="255.183" width="43.438" height="129.304" transform="rotate(7.4386 -29.4277 255.183)" fill="#FF0000"/>
<rect x="47.5586" y="299.631" width="43.438" height="129.304" transform="rotate(7.4386 47.5586 299.631)" fill="#FF0000"/>
<rect x="124.545" y="344.079" width="43.438" height="129.304" transform="rotate(7.4386 124.545 344.079)" fill="#FF0000"/>
<rect x="201.531" y="388.527" width="43.438" height="129.304" transform="rotate(7.4386 201.531 388.527)" fill="#FF0000"/>
<rect x="278.518" y="432.975" width="43.438" height="129.304" transform="rotate(7.4386 278.518 432.975)" fill="#FF0000"/>
<rect x="355.504" y="477.423" width="43.438" height="129.304" transform="rotate(7.4386 355.504 477.423)" fill="#FF0000"/>
</g>
<rect x="-136.938" y="424.913" width="592.979" height="47.4787" transform="rotate(-7.62558 -136.938 424.913)" fill="white"/>
<mask id="mask3" mask-type="alpha" maskUnits="userSpaceOnUse" x="-137" y="346" width="595" height="126">
<rect x="-136.938" y="424.913" width="592.979" height="47.4787" transform="rotate(-7.62558 -136.938 424.913)" fill="white"/>
</mask>
<g mask="url(#mask3)">
<rect x="-52.5605" y="385.229" width="43.438" height="129.304" transform="rotate(-30.187 -52.5605 385.229)" fill="#FF0000"/>
<rect x="35.5488" y="373.432" width="43.438" height="129.304" transform="rotate(-30.187 35.5488 373.432)" fill="#FF0000"/>
<rect x="123.66" y="361.636" width="43.438" height="129.304" transform="rotate(-30.187 123.66 361.636)" fill="#FF0000"/>
<rect x="211.77" y="349.839" width="43.438" height="129.304" transform="rotate(-30.187 211.77 349.839)" fill="#FF0000"/>
<rect x="299.879" y="338.043" width="43.438" height="129.304" transform="rotate(-30.187 299.879 338.043)" fill="#FF0000"/>
<rect x="387.99" y="326.246" width="43.438" height="129.304" transform="rotate(-30.187 387.99 326.246)" fill="#FF0000"/>
</g>
</g>
<path d="M186.249 192.205C218.346 234.247 210.285 294.349 168.243 326.446C126.201 358.543 66.0993 350.482 34.002 308.44C1.90474 266.398 9.96642 206.296 52.0083 174.199C94.0501 142.102 154.152 150.164 186.249 192.205Z" fill="white"/>
<path fill-rule="evenodd" clip-rule="evenodd" d="M58.3041 182.446C20.8168 211.066 13.6284 264.657 42.2485 302.144C70.8686 339.631 124.459 346.82 161.947 318.199C199.434 289.579 206.622 235.989 178.002 198.501C149.382 161.014 95.7914 153.826 58.3041 182.446ZM25.7551 314.736C-9.81939 268.14 -0.884372 201.527 45.712 165.952C92.3084 130.378 158.921 139.313 194.496 185.909C230.07 232.506 221.135 299.118 174.539 334.693C127.942 370.267 61.3296 361.332 25.7551 314.736Z" fill="#FF0000"/>
<path d="M324.274 70.8138C327.088 123.633 286.551 168.732 233.732 171.546C180.913 174.36 135.814 133.823 133 81.0042C130.185 28.1853 170.722 -16.914 223.541 -19.728C276.36 -22.542 321.46 17.9949 324.274 70.8138Z" fill="#0038FF"/>
<path fill-rule="evenodd" clip-rule="evenodd" d="M224.092 -9.36724C176.995 -6.85808 140.85 33.3555 143.359 80.4524C145.868 127.549 186.082 163.695 233.178 161.185C280.275 158.676 316.421 118.463 313.912 71.3659C311.402 24.2691 271.189 -11.8764 224.092 -9.36724ZM122.637 81.5563C119.519 23.0154 164.447 -26.9697 222.988 -30.0886C281.529 -33.2075 331.514 11.721 334.633 70.2619C337.752 128.803 292.823 178.788 234.282 181.907C175.741 185.026 125.756 140.097 122.637 81.5563Z" fill="#FF0000"/>
<path fill-rule="evenodd" clip-rule="evenodd" d="M196.255 134.935L243.031 7.5752L262.51 14.7292L215.734 142.089L196.255 134.935Z" fill="white"/>
<path fill-rule="evenodd" clip-rule="evenodd" d="M258.285 164.683L179.598 -5.35596L198.43 -14.0707L277.117 155.968L258.285 164.683Z" fill="#FF0000"/>
</g>
</svg>
