<svg width="910" height="409" viewBox="0 0 910 409" fill="none" xmlns="http://www.w3.org/2000/svg">
<path d="M910 393.179L843.597 385.14L809.289 409L792.411 385.658L641.897 297.867L558.063 191.403L438.538 121.766L445.455 136.29L505.217 173.507L488.34 218.764L555.573 271.024L548.656 332.88L630.83 398.626L559.17 385.399L522.925 407.185L501.344 385.788L318.735 272.84L318.182 272.191L202.53 141.218L0 15.8205L66.9565 23.7308L101.265 0L118.142 23.2121L262.292 104.908L340.04 205.278L452.925 269.338L447.115 256.241L387.905 220.839L405.613 177.657L343.083 129.158L355.81 72.4892L278.063 9.59607L352.767 23.4715L390.949 2.46386L415.573 22.9528L596.522 136.16L710.237 267.653L910 393.179Z" fill="#FFD42F"/>
</svg>
