<svg width="1086" height="1225" viewBox="0 0 1086 1225" fill="none" xmlns="http://www.w3.org/2000/svg">
<path d="M1086 1177.62L1006.75 1153.54L965.81 1225L945.669 1155.09L766.044 892.145L665.996 573.272L523.354 364.704L531.608 408.204L602.93 519.673L582.788 655.224L663.025 811.747L654.77 997.012L752.837 1193.93L667.317 1154.31L624.062 1219.56L598.307 1155.48L380.381 817.185L379.72 815.243L241.7 422.963L0 47.3843L79.9063 71.0764L120.85 0L140.992 69.5228L313.022 314.212L405.805 614.83L540.524 806.698L533.59 767.47L462.929 661.438L484.061 532.102L409.438 386.842L424.626 217.113L331.843 28.7413L420.994 70.2996L466.561 7.37952L495.948 68.746L711.893 407.815L847.602 801.649L1086 1177.62Z" fill="#FFD42F"/>
</svg>
