<svg width="55" height="97" viewBox="0 0 55 97" fill="none" xmlns="http://www.w3.org/2000/svg">
<mask id="mask0" mask-type="alpha" maskUnits="userSpaceOnUse" x="0" y="0" width="55" height="97">
<rect width="55" height="97" transform="matrix(-1 0 0 1 55 0)" fill="#C4C4C4"/>
</mask>
<g mask="url(#mask0)">
<path fill-rule="evenodd" clip-rule="evenodd" d="M27.5249 47.8352C37.791 54.9114 49.8864 56.506 58 55.8733L56.982 43.1372C51.0878 43.5968 42.1715 42.3515 34.9278 37.3585C28.0596 32.6243 21.9352 24.0169 21.9352 8H9C9 27.8087 16.8834 40.5001 27.5249 47.8352Z" fill="black"/>
<path fill-rule="evenodd" clip-rule="evenodd" d="M28.1469 52.3349C38.2034 45.1112 50.052 43.4835 58 44.1293L57.0027 57.1308C51.2288 56.6616 42.4945 57.9328 35.3987 63.0299C28.6706 67.8627 22.6712 76.6494 22.6712 93H10C10 72.7786 17.7225 59.8229 28.1469 52.3349Z" fill="black"/>
</g>
</svg>
