<svg width="1142" height="1234" viewBox="0 0 1142 1234" fill="none" xmlns="http://www.w3.org/2000/svg">
<path fill-rule="evenodd" clip-rule="evenodd" d="M388.948 0L542.213 53.5216L753.472 388.422L881.18 764.247L1142 1178.5L1015.08 1141.98L955.746 1233.79L915.421 1125.68L726.642 836.923L725.054 831.375L615.763 496.755L436.162 221.65L405.207 198.997L338.765 244.827L318.982 240.915L461.119 459.567L574.158 800.832L822.762 1180.15L692.499 1142.07L633.539 1234L593.093 1125.57L385.605 801.801L255.312 425.498L0 18.7835L241.456 53.2451L388.948 0ZM389.237 55.2045L246.926 106.579L103.677 86.134L302.495 402.853L432.707 778.923L639.859 1102.16L645.909 1118.39L669.75 1081.21L701.904 1090.62L526.949 823.668L413.879 482.309L208.252 165.989L327.321 189.531L406.098 135.194L474.504 185.255L663.047 474.057L774.369 814.895L962.103 1102.05L968.274 1118.6L992.375 1081.31L1025.33 1090.79L833.928 786.797L706.227 410.993L507.94 96.6569L389.237 55.2045Z" fill="#0038FF"/>
</svg>
