<svg width="209" height="209" viewBox="0 0 209 209" fill="none" xmlns="http://www.w3.org/2000/svg">
<circle cx="104.467" cy="104.405" r="69.5987" transform="rotate(-14.7298 104.467 104.405)" fill="white" stroke="#FF0000" stroke-width="13"/>
<path d="M79.5896 92.0147C76.6462 91.5755 73.7935 91.8293 71.2356 92.7094L72.7941 82.2651L96.5313 85.8071L97.8064 77.2617L65.9986 72.5154L62.0315 99.101L69.7763 102.489C72.2718 100.726 75.1812 100.093 78.3145 100.56C83.7265 101.368 87.604 106.605 86.7964 112.017C85.9889 117.429 80.7512 121.307 75.3392 120.499C69.7372 119.663 66.0213 114.644 66.8572 109.042L67.1406 107.143L58.5952 105.868L58.3118 107.767C57.5467 112.894 58.699 117.531 61.7687 121.677C64.8384 125.824 68.9368 128.28 74.064 129.045C79.1913 129.81 83.8281 128.658 87.9745 125.588C92.121 122.518 94.5767 118.42 95.3418 113.293C96.1069 108.165 94.9546 103.528 91.8849 99.382C88.8153 95.2356 84.7168 92.7798 79.5896 92.0147Z" fill="black"/>
<path d="M150.873 105.563C151.766 99.5817 150.347 94.1286 146.712 89.2183C143.077 84.308 138.275 81.3591 132.294 80.4665C126.312 79.574 120.764 80.9785 115.853 84.6137C110.943 88.2488 108.089 93.0643 107.197 99.0461L105.355 111.389C104.462 117.371 105.772 122.905 109.407 127.815C113.042 132.726 117.953 135.594 123.934 136.486C129.916 137.379 135.355 136.055 140.265 132.42C145.176 128.785 148.139 123.889 149.031 117.907L150.873 105.563ZM140.486 116.632C139.933 120.335 138.136 123.27 135.19 125.451C132.244 127.632 128.913 128.493 125.21 127.941C121.507 127.388 118.572 125.592 116.39 122.645C114.209 119.699 113.348 116.368 113.9 112.665L115.742 100.321C116.295 96.6182 118.091 93.6833 121.038 91.5022C123.984 89.3211 127.315 88.4594 131.018 89.0119C134.721 89.5645 137.656 91.3613 139.837 94.3075C142.019 97.2536 142.88 100.585 142.328 104.288L140.486 116.632Z" fill="black"/>
</svg>
