<svg width="201" height="201" viewBox="0 0 201 201" fill="none" xmlns="http://www.w3.org/2000/svg">
<circle cx="100.399" cy="100.399" r="69.5987" transform="rotate(-23.2167 100.399 100.399)" fill="white" stroke="#FF0000" stroke-width="13"/>
<path d="M124.339 67.0845C125.159 65.0331 124.16 62.7055 122.109 61.8857L88.6796 48.5262C86.6282 47.7064 84.3007 48.7048 83.4809 50.7562C82.6611 52.8076 83.6595 55.1352 85.7109 55.955L115.426 67.8301L103.551 97.5451C102.731 99.5965 103.729 101.924 105.781 102.744C107.832 103.564 110.16 102.565 110.98 100.514L124.339 67.0845ZM105.746 150.238L86.0675 104.362L78.7153 107.516L98.3937 153.392L105.746 150.238ZM95.514 80.7237L122.201 69.2762L119.048 61.924L92.3604 73.3715L95.514 80.7237ZM86.0675 104.362C82.1486 95.2257 86.3779 84.6426 95.514 80.7237L92.3604 73.3715C79.1638 79.0321 73.0547 94.3189 78.7153 107.516L86.0675 104.362Z" fill="black"/>
<path d="M37.9414 75.439L164.377 125.967" stroke="#FF0000" stroke-width="13"/>
</svg>
