<svg width="632" height="259" viewBox="0 0 632 259" fill="none" xmlns="http://www.w3.org/2000/svg">
<path d="M185.018 198.628C178.058 183.61 163.011 174 146.459 174H66.5413C35.4956 174 14.9266 206.205 27.9818 234.372V234.372C34.9424 249.39 49.9889 259 66.5414 259H146.459C177.504 259 198.073 226.795 185.018 198.628V198.628Z" fill="#11DA00"/>
<path d="M604.018 24.628C597.058 9.61023 582.011 0 565.459 0H485.541C454.496 0 433.927 32.2047 446.982 60.372V60.372C453.942 75.3898 468.989 85 485.541 85H565.459C596.504 85 617.073 52.7953 604.018 24.628V24.628Z" fill="#11DA00"/>
</svg>
