<svg width="682" height="158" viewBox="0 0 682 158" fill="none" xmlns="http://www.w3.org/2000/svg">
<path d="M185.018 97.628C178.058 82.6102 163.011 73 146.459 73H66.5413C35.4956 73 14.9266 105.205 27.9818 133.372V133.372C34.9424 148.39 49.9889 158 66.5414 158H146.459C177.504 158 198.073 125.795 185.018 97.628V97.628Z" fill="#FF0000"/>
<path d="M654.018 24.628C647.058 9.61023 632.011 0 615.459 0H535.541C504.496 0 483.927 32.2047 496.982 60.372V60.372C503.942 75.3898 518.989 85 535.541 85H615.459C646.504 85 667.073 52.7953 654.018 24.628V24.628Z" fill="#FF0000"/>
</svg>
